<svg width="30" height="30" viewBox="0 0 30 30" fill="none" xmlns="http://www.w3.org/2000/svg">
<mask id="mask0_696_906" style="mask-type:alpha" maskUnits="userSpaceOnUse" x="0" y="0" width="30" height="30">
<rect x="30" y="30" width="30" height="30" transform="rotate(180 30 30)" fill="#D9D9D9"/>
</mask>
<g mask="url(#mask0_696_906)">
<path d="M4.8125 13.75H20V16.25H4.8125L6.75 18.1875L5 20L0 15L5 10L6.75 11.8125L4.8125 13.75ZM11.25 18.75V23.75H23.75V6.25H11.25V11.25H8.75V6.25C8.75 5.5625 8.99479 4.97396 9.48437 4.48437C9.97396 3.99479 10.5625 3.75 11.25 3.75H23.75C24.4375 3.75 25.026 3.99479 25.5156 4.48437C26.0052 4.97396 26.25 5.5625 26.25 6.25V23.75C26.25 24.4375 26.0052 25.026 25.5156 25.5156C25.026 26.0052 24.4375 26.25 23.75 26.25H11.25C10.5625 26.25 9.97396 26.0052 9.48437 25.5156C8.99479 25.026 8.75 24.4375 8.75 23.75V18.75H11.25Z" fill="#1C1B1F"/>
</g>
</svg>
