<svg width="40" height="40" viewBox="0 0 40 40" fill="none" xmlns="http://www.w3.org/2000/svg">
<rect width="40" height="40" rx="10" fill="white"/>
<rect x="0.5" y="0.5" width="39" height="39" rx="9.5" stroke="black" stroke-opacity="0.25"/>
<path d="M20 9.5C21.7237 9.50001 23.3768 10.1846 24.5957 11.4033C25.8147 12.6223 26.5 14.2761 26.5 16V20.4463C26.5001 20.7183 26.575 20.985 26.7119 21.2158L26.7129 21.2188L28.5205 24.2285C29.1199 25.2277 28.3998 26.4997 27.2334 26.5H23.5V27C23.5 27.9282 23.131 28.8182 22.4746 29.4746C21.8182 30.131 20.9282 30.5 20 30.5C19.0718 30.5 18.1818 30.131 17.5254 29.4746C16.869 28.8182 16.5 27.9283 16.5 27V26.5H12.7646C11.5989 26.4998 10.8787 25.2284 11.4785 24.2275L13.2842 21.2188C13.4247 20.9861 13.4992 20.7191 13.5 20.4473V16C13.5 14.2761 14.1843 12.6223 15.4033 11.4033C16.6223 10.1843 18.2761 9.5 20 9.5ZM17.5 27C17.5 27.663 17.7636 28.2987 18.2324 28.7676C18.7013 29.2364 19.337 29.5 20 29.5C20.663 29.5 21.2987 29.2364 21.7676 28.7676C22.2364 28.2987 22.5 27.663 22.5 27V26.5H17.5V27ZM20 10.5C18.5413 10.5 17.1428 11.0799 16.1113 12.1113C15.0799 13.1428 14.5 14.5413 14.5 16V20.4463C14.4997 20.899 14.3766 21.3433 14.1436 21.7314L12.3359 24.7432L11.8818 25.5H28.1162L27.6621 24.7432L25.8564 21.7324C25.6231 21.3437 25.4999 20.8987 25.5 20.4453V16C25.5 14.5413 24.9201 13.1428 23.8887 12.1113C22.8572 11.0799 21.4587 10.5 20 10.5Z" fill="black" stroke="black"/>
</svg>
