<svg width="27" height="27" viewBox="0 0 27 27" fill="none" xmlns="http://www.w3.org/2000/svg">
<path d="M25.3038 20.1462L24.2034 18.5769C22.3028 15.9923 21.3025 12.9462 21.3025 9.80769C21.3025 6.48462 18.9017 3.80769 15.7007 2.88462C15.4006 2.05385 14.5003 1.5 13.5 1.5C12.4997 1.5 11.5994 2.05385 11.2993 2.88462C8.09827 3.80769 5.6975 6.48462 5.6975 9.80769C5.6975 12.9462 4.69718 15.9923 2.79657 18.5769L1.69622 20.1462C1.19605 20.8846 1.69622 21.8077 2.69654 21.8077H24.3035C25.3038 21.8077 25.8039 20.8846 25.3038 20.1462Z" stroke="#FF0000" stroke-width="3" stroke-miterlimit="10" stroke-linecap="round" stroke-linejoin="round"/>
<path d="M17.5006 21.8076C17.5006 23.8384 15.7 25.4999 13.4993 25.4999C11.2986 25.4999 9.49805 23.8384 9.49805 21.8076" stroke="#FF0000" stroke-width="3" stroke-miterlimit="10" stroke-linecap="round" stroke-linejoin="round"/>
</svg>
